Coordinates
version=1
nRows=7
nColumns=40
inDegrees=yes

Units are S.I. units (second, meters, Newtons, ...)
If the header above contains a line with 'inDegrees', this indicates whether rotational values are in degrees (yes) or radians (no).

endheader
time	pelvis_tilt	pelvis_list	pelvis_rotation	pelvis_tx	pelvis_ty	pelvis_tz	hip_flexion_r	hip_adduction_r	hip_rotation_r	knee_angle_r	knee_angle_r_beta	ankle_angle_r	subtalar_angle_r	mtp_angle_r	hip_flexion_l	hip_adduction_l	hip_rotation_l	knee_angle_l	knee_angle_l_beta	ankle_angle_l	subtalar_angle_l	mtp_angle_l	lumbar_extension	lumbar_bending	lumbar_rotation	arm_flex_r	arm_add_r	arm_rot_r	elbow_flex_r	pro_sup_r	wrist_flex_r	wrist_dev_r	arm_flex_l	arm_add_l	arm_rot_l	elbow_flex_l	pro_sup_l	wrist_flex_l	wrist_dev_l
      3.44500000	    -37.35359851	      3.51238300	      5.71628682	     -0.43975250	      0.61345771	     -0.91674505	    102.87469329	    -19.83087004	     12.49622025	    102.99852023	      1.79766330	     38.76300149	      0.00000000	      0.00000000	    103.51021055	     -9.42760890	      1.30057992	     99.22404144	      1.73178622	     32.72574475	      0.00000000	      0.00000000	    -32.60101031	     -2.92447890	     -1.90968766	    -30.69631466	    -55.64508962	     27.19973850	    105.85354745	     88.11577503	      0.00000000	      0.00000000	      3.98366160	    -66.81246540	     63.47919464	    109.57013486	     88.12930307	      0.00000000	      0.00000000
      3.45000000	    -37.36229203	      3.52731408	      5.70020543	     -0.43976256	      0.61347574	     -0.91673651	    102.87761772	    -19.79868077	     12.52519031	    102.97321364	      1.79722162	     38.76614727	      0.00000000	      0.00000000	    103.50933776	     -9.43983131	      1.29486933	     99.21340636	      1.73160060	     32.73343787	      0.00000000	      0.00000000	    -32.64204987	     -2.93013655	     -2.28702345	    -30.01976478	    -55.90540283	     27.84217582	    105.91342560	     88.12039196	      0.00000000	      0.00000000	      1.87395365	    -66.83107130	     61.23478766	    109.66003853	     88.15329522	      0.00000000	      0.00000000
      3.45500000	    -37.39799495	      3.53609117	      5.72027795	     -0.43984851	      0.61351391	     -0.91687562	    102.92799768	    -19.80906037	     12.56396912	    102.97092712	      1.79718171	     38.70179981	      0.00000000	      0.00000000	    103.53409046	     -9.40471064	      1.27230736	     99.19207315	      1.73122827	     32.71908688	      0.00000000	      0.00000000	    -32.55685817	     -2.96899817	     -1.29856916	    -32.14182956	    -55.12718748	     25.70189168	    105.89554851	     88.13246180	      0.00000000	      0.00000000	      6.80214859	    -66.72597589	     66.36130222	    109.45815191	     88.11868326	      0.00000000	      0.00000000
      3.46000000	    -37.48151026	      3.49768649	      5.73494085	     -0.43996464	      0.61349232	     -0.91689439	    102.98673131	    -19.81690220	     12.50170476	    102.92536702	      1.79638654	     38.71528118	      0.00000000	      0.00000000	    103.62250258	     -9.37713108	      1.31408510	     99.16451555	      1.73074730	     32.74669776	      0.00000000	      0.00000000	    -32.44672787	     -2.91255284	     -2.42189354	    -29.41041604	    -56.10665675	     28.51026974	    105.81394444	     88.16500922	      0.00000000	      0.00000000	      2.08612795	    -66.80190193	     61.66173797	    109.58152827	     88.13659281	      0.00000000	      0.00000000
      3.46500000	    -37.44242458	      3.52886669	      5.74610362	     -0.43991066	      0.61361595	     -0.91698444	    102.93219607	    -19.81308444	     12.58378229	    102.91900626	      1.79627552	     38.77823730	      0.00000000	      0.00000000	    103.56270426	     -9.38181639	      1.24079854	     99.15243782	      1.73053650	     32.67383909	      0.00000000	      0.00000000	    -32.51530261	     -2.93272096	     -2.51353656	    -29.29765958	    -56.16016618	     28.66861628	    105.78055864	     88.13088523	      0.00000000	      0.00000000	      1.73473511	    -66.83383042	     61.27904548	    109.67586120	     88.12581346	      0.00000000	      0.00000000
      3.47000000	    -37.46741202	      3.50185798	      5.78385511	     -0.43998246	      0.61362354	     -0.91713539	    102.97719095	    -19.86480869	     12.56525644	    102.92841262	      1.79643969	     38.68864754	      0.00000000	      0.00000000	    103.59894181	     -9.31371710	      1.27692100	     99.14049596	      1.73032808	     32.68363062	      0.00000000	      0.00000000	    -32.49829174	     -2.91927519	     -1.32078124	    -32.24927883	    -55.11538806	     25.58340694	    105.92388496	     88.13402941	      0.00000000	      0.00000000	      6.95497896	    -66.70389838	     66.53965725	    109.43422772	     88.11433886	      0.00000000	      0.00000000
      3.47500000	    -37.51825648	      3.54503413	      5.76718143	     -0.44003307	      0.61364318	     -0.91707932	    103.03914550	    -19.82817458	     12.61667489	    102.90153881	      1.79597066	     38.69402481	      0.00000000	      0.00000000	    103.61360772	     -9.33737162	      1.22994920	     99.11787722	      1.72993331	     32.72475977	      0.00000000	      0.00000000	    -32.44120307	     -2.97242325	     -2.42957419	    -29.53961528	    -56.03277734	     28.44878092	    105.79082989	     88.12739201	      0.00000000	      0.00000000	      2.22059719	    -66.83845251	     61.74466560	    109.64108143	     88.11731958	      0.00000000	      0.00000000
